<svg xmlns="http://www.w3.org/2000/svg" viewBox="0 0 3777.04 413"><defs><style>.cls-1{font-size:250px;font-family:Calibri;letter-spacing:0.25em;}.cls-2{letter-spacing:0.24em;}.cls-3{fill:#fff200;}.cls-4{fill:#00aeef;}.cls-5{fill:none;stroke:#231f20;stroke-miterlimit:10;stroke-width:10.5px;}.cls-6{fill:#ec008c;}</style></defs><g id="Layer_2" data-name="Layer 2"><text class="cls-1" transform="translate(536.81 289.36)">NIMTHARA PRINTE<tspan class="cls-2" x="2867.92" y="0">R</tspan><tspan x="3062.87" y="0">S</tspan></text><path class="cls-3" d="M405.1,1834.8h0a49.56,49.56,0,0,1,49.56,49.56v231.28a49.56,49.56,0,0,1-49.56,49.56h0a49.56,49.56,0,0,1-49.56-49.56V1884.36A49.56,49.56,0,0,1,405.1,1834.8Z" transform="translate(-102.23 -1793.5)"/><path class="cls-4" d="M151.79,1834.8h0a49.56,49.56,0,0,1,49.56,49.56v231.28a49.56,49.56,0,0,1-49.56,49.56h0a49.56,49.56,0,0,1-49.56-49.56V1884.36A49.56,49.56,0,0,1,151.79,1834.8Z" transform="translate(-102.23 -1793.5)"/><path class="cls-5" d="M181.47,1851.83l253.38,231.28a44.06,44.06,0,0,1,2.84,62.24h0a44.05,44.05,0,0,1-62.24,2.83L122.07,1916.9a44.07,44.07,0,0,1-2.83-62.24h0A44,44,0,0,1,181.47,1851.83Z" transform="translate(-102.23 -1793.5)"/><path class="cls-6" d="M278.45,1793.5h0a55.07,55.07,0,0,1,55.06,55.07v302.87a55.06,55.06,0,0,1-55.06,55.06h0a55.07,55.07,0,0,1-55.07-55.06V1848.57A55.08,55.08,0,0,1,278.45,1793.5Z" transform="translate(-102.23 -1793.5)"/></g></svg>